<svg xmlns="http://www.w3.org/2000/svg" id="graphic" width="956" height="112.5575"><g id="facets"><g class="facet" transform="translate(10, 34)" opacity="1"><text class="facet-title" y="-12" font-size="16" font-weight="bold" dominant-baseline="middle" x="3.984375" clip-path="url(#facet-clip-0)" fill="black">Jimmy Fallon</text><g class="plot"><clipPath class="facet-clip" id="facet-clip-0"><rect width="118.875" height="112.5575" transform="translate(-7.5, -34)"/></clipPath><g class="bg"><rect fill="none" width="103.875" height="68.5575" style="fill: none;"/></g><g class="interaction"><g class="series"/></g><g class="axes"/></g></g><g class="facet" transform="translate(128.875, 34)" opacity="1"><text class="facet-title" y="-12" font-size="16" font-weight="bold" dominant-baseline="middle" x="-1.796875" clip-path="url(#facet-clip-1)" fill="black">Jimmy Kimmel</text><g class="plot"><clipPath class="facet-clip" id="facet-clip-1"><rect width="118.875" height="112.5575" transform="translate(-7.5,-34)"/></clipPath><g class="bg"><rect fill="none" width="103.875" height="68.5575" style="fill: none;"/></g><g class="interaction"><g class="series"/></g><g class="axes"/></g></g><g class="facet" transform="translate(247.75, 34)" opacity="1"><text class="facet-title" y="-12" font-size="16" font-weight="bold" dominant-baseline="middle" x="-5.6171875" clip-path="url(#facet-clip-2)" fill="black">Stephen Colbert</text><g class="plot"><clipPath class="facet-clip" id="facet-clip-2"><rect width="118.875" height="112.5575" transform="translate(-7.5,-34)"/></clipPath><g class="bg"><rect fill="none" width="103.875" height="68.5575" style="fill: none;"/></g><g class="interaction"><g class="series"/></g><g class="axes"/></g></g><g class="facet" transform="translate(366.625, 34)" opacity="1"><text class="facet-title" y="-12" font-size="16" font-weight="bold" dominant-baseline="middle" x="9.09375" clip-path="url(#facet-clip-3)" fill="black">Seth Meyers</text><g class="plot"><clipPath class="facet-clip" id="facet-clip-3"><rect width="118.875" height="112.5575" transform="translate(-7.5,-34)"/></clipPath><g class="bg"><rect fill="none" width="103.875" height="68.5575" style="fill: none;"/></g><g class="interaction"><g class="series"/></g><g class="axes"/></g></g><g class="facet" transform="translate(485.5, 34)" opacity="1"><text class="facet-title" y="-12" font-size="16" font-weight="bold" dominant-baseline="middle" x="1.5078125" clip-path="url(#facet-clip-4)" fill="black">James Corden</text><g class="plot"><clipPath class="facet-clip" id="facet-clip-4"><rect width="118.875" height="112.5575" transform="translate(-7.5,-34)"/></clipPath><g class="bg"><rect fill="none" width="103.875" height="68.5575" style="fill: none;"/></g><g class="interaction"><g class="series"/></g><g class="axes"/></g></g><g class="facet" transform="translate(604.375, 34)" opacity="1"><text class="facet-title" y="-12" font-size="16" font-weight="bold" dominant-baseline="middle" x="9.703125" clip-path="url(#facet-clip-5)" fill="black">Carson Daly</text><g class="plot"><clipPath class="facet-clip" id="facet-clip-5"><rect width="118.875" height="112.5575" transform="translate(-7.5,-34)"/></clipPath><g class="bg"><rect fill="none" width="103.875" height="68.5575" style="fill: none;"/></g><g class="interaction"><g class="series"/></g><g class="axes"/></g></g><g class="facet" transform="translate(723.25, 34)" opacity="1"><text class="facet-title" y="-12" font-size="16" font-weight="bold" dominant-baseline="middle" x="8.828125" clip-path="url(#facet-clip-6)" fill="black">Trevor Noah</text><g class="plot"><clipPath class="facet-clip" id="facet-clip-6"><rect width="118.875" height="112.5575" transform="translate(-7.5,-34)"/></clipPath><g class="bg"><rect fill="none" width="103.875" height="68.5575" style="fill: none;"/></g><g class="interaction"><g class="series"/></g><g class="axes"/></g></g><g class="facet" transform="translate(842.125, 34)" opacity="1"><text class="facet-title" y="-12" font-size="16" font-weight="bold" dominant-baseline="middle" x="29.4765625" clip-path="url(#facet-clip-7)" fill="black">Conan</text><g class="plot"><clipPath class="facet-clip" id="facet-clip-7"><rect width="118.875" height="112.5575" transform="translate(-7.5,-34)"/></clipPath><g class="bg"><rect fill="none" width="103.875" height="68.5575" style="fill: none;"/></g><g class="interaction"><g class="series"/></g><g class="axes"/></g></g></g><g class="annotations below"><g class="axis-highlights" transform="translate(10, 34)" style="opacity: 1;"/><g class="axis-highlights" transform="translate(128.875, 34)" style="opacity: 1;"/><g class="axis-highlights" transform="translate(247.75, 34)" style="opacity: 1;"/><g class="axis-highlights" transform="translate(366.625, 34)" style="opacity: 1;"/><g class="axis-highlights" transform="translate(485.5, 34)" style="opacity: 1;"/><g class="axis-highlights" transform="translate(604.375, 34)" style="opacity: 1;"/><g class="axis-highlights" transform="translate(723.25, 34)" style="opacity: 1;"/><g class="axis-highlights" transform="translate(842.125, 34)" style="opacity: 1;"/></g><g id="areas"><g class="series" pointer-events="none"><path class="area" transform="translate(10, 34)" fill-opacity="0" fill="rgba(0,0,0,0.5)" clip-path="url(#clip-0-0)" d="M2.5335365853658516,7.617500000000007C10.978658536585364,24.629916666666677,19.423780487804876,41.64233333333334,27.86890243902439,51.79900000000001C36.3140243902439,61.95566666666667,44.75914634146341,68.5575,53.204268292682926,68.5575C61.64939024390244,68.5575,70.09451219512195,65.51050000000001,78.53963414634146,62.4635L78.53963414634146,62.4635C70.09451219512195,65.51050000000001,61.64939024390244,68.5575,53.204268292682926,68.5575C44.75914634146341,68.5575,36.3140243902439,61.95566666666667,27.86890243902439,51.79900000000001C19.423780487804876,41.64233333333334,10.978658536585364,24.629916666666677,2.5335365853658516,7.617500000000007Z"/></g><g class="series" pointer-events="none"><path class="area" transform="translate(128.875, 34)" fill-opacity="0" fill="rgba(0,0,0,0.5)" clip-path="url(#clip-0-1)" d="M2.5335365853658516,4.570500000000003C10.978658536585364,25.137750000000008,19.423780487804876,45.705000000000005,27.86890243902439,54.846000000000004C36.3140243902439,63.987,44.75914634146341,68.5575,53.204268292682926,68.5575C61.64939024390244,68.5575,70.09451219512195,65.51050000000001,78.53963414634146,62.4635L78.53963414634146,62.4635C70.09451219512195,65.51050000000001,61.64939024390244,68.5575,53.204268292682926,68.5575C44.75914634146341,68.5575,36.3140243902439,63.987,27.86890243902439,54.846000000000004C19.423780487804876,45.705000000000005,10.978658536585364,25.137750000000008,2.5335365853658516,4.570500000000003Z"/></g><g class="series" pointer-events="none"><path class="area" transform="translate(247.75, 34)" fill-opacity="0" fill="rgba(0,0,0,0.5)" clip-path="url(#clip-0-2)" d="M2.5335365853658516,4.570500000000003C10.978658536585364,25.137750000000008,19.423780487804876,45.705000000000005,27.86890243902439,54.846000000000004C36.3140243902439,63.987,44.75914634146341,68.5575,53.204268292682926,68.5575C61.64939024390244,68.5575,70.09451219512195,65.51050000000001,78.53963414634146,62.4635L78.53963414634146,62.4635C70.09451219512195,65.51050000000001,61.64939024390244,68.5575,53.204268292682926,68.5575C44.75914634146341,68.5575,36.3140243902439,63.987,27.86890243902439,54.846000000000004C19.423780487804876,45.705000000000005,10.978658536585364,25.137750000000008,2.5335365853658516,4.570500000000003Z"/></g><g class="series" pointer-events="none"><path class="area" transform="translate(366.625, 34)" fill-opacity="0" fill="rgba(0,0,0,0.5)" clip-path="url(#clip-0-3)" d="M2.5335365853658516,12.188000000000002C10.978658536585364,25.01079166666667,19.423780487804876,37.83358333333334,27.86890243902439,47.228500000000004C36.3140243902439,56.62341666666667,44.75914634146341,68.5575,53.204268292682926,68.5575C61.64939024390244,68.5575,70.09451219512195,65.51050000000001,78.53963414634146,62.4635L78.53963414634146,62.4635C70.09451219512195,65.51050000000001,61.64939024390244,68.5575,53.204268292682926,68.5575C44.75914634146341,68.5575,36.3140243902439,56.62341666666667,27.86890243902439,47.228500000000004C19.423780487804876,37.83358333333334,10.978658536585364,25.01079166666667,2.5335365853658516,12.188000000000002Z"/></g><g class="series" pointer-events="none"><path class="area" transform="translate(485.5, 34)" fill-opacity="0" fill="rgba(0,0,0,0.5)" clip-path="url(#clip-4-4)" d="M2.5335365853658516,10.664500000000004C10.978658536585364,24.88383333333334,19.423780487804876,39.103166666666674,27.86890243902439,48.75200000000001C36.3140243902439,58.400833333333345,44.75914634146341,68.5575,53.204268292682926,68.5575C61.64939024390244,68.5575,70.09451219512195,65.51050000000001,78.53963414634146,62.4635L78.53963414634146,62.4635C70.09451219512195,65.51050000000001,61.64939024390244,68.5575,53.204268292682926,68.5575C44.75914634146341,68.5575,36.3140243902439,58.400833333333345,27.86890243902439,48.75200000000001C19.423780487804876,39.103166666666674,10.978658536585364,24.88383333333334,2.5335365853658516,10.664500000000004Z"/></g><g class="series" pointer-events="none"><path class="area" transform="translate(604.375, 34)" fill-opacity="0" fill="rgba(0,0,0,0.5)" clip-path="url(#clip-5-5)" d="M2.5335365853658516,28.946500000000007C10.978658536585364,29.200416666666673,19.423780487804876,29.454333333333338,27.86890243902439,30.47C36.3140243902439,31.48566666666666,44.75914634146341,68.5575,53.204268292682926,68.5575C61.64939024390244,68.5575,70.09451219512195,65.51050000000001,78.53963414634146,62.4635L78.53963414634146,62.4635C70.09451219512195,65.51050000000001,61.64939024390244,68.5575,53.204268292682926,68.5575C44.75914634146341,68.5575,36.3140243902439,31.48566666666666,27.86890243902439,30.47C19.423780487804876,29.454333333333338,10.978658536585364,29.200416666666673,2.5335365853658516,28.946500000000007Z"/></g><g class="series" pointer-events="none"><path class="area" transform="translate(723.25, 34)" fill-opacity="0" fill="rgba(0,0,0,0.5)" clip-path="url(#clip-6-6)" d="M2.5335365853658516,4.570500000000003C10.978658536585364,32.247416666666666,19.423780487804876,59.92433333333334,27.86890243902439,60.940000000000005C36.3140243902439,61.95566666666667,44.75914634146341,62.4635,53.204268292682926,62.4635C61.64939024390244,62.4635,70.09451219512195,62.4635,78.53963414634146,62.4635L78.53963414634146,62.4635C70.09451219512195,62.4635,61.64939024390244,62.4635,53.204268292682926,62.4635C44.75914634146341,62.4635,36.3140243902439,61.95566666666667,27.86890243902439,60.940000000000005C19.423780487804876,59.92433333333334,10.978658536585364,32.247416666666666,2.5335365853658516,4.570500000000003Z"/></g><g class="series" pointer-events="none"><path class="area" transform="translate(842.125, 34)" fill-opacity="0" fill="rgba(0,0,0,0.5)" clip-path="url(#clip-7-7)" d="M2.5335365853658516,31.993500000000004C10.978658536585364,35.421375000000005,19.423780487804876,38.84925,27.86890243902439,44.1815C36.3140243902439,49.51375,44.75914634146341,63.987,53.204268292682926,63.987C61.64939024390244,63.987,70.09451219512195,57.13125000000001,78.53963414634146,50.27550000000001L78.53963414634146,50.27550000000001C70.09451219512195,57.13125000000001,61.64939024390244,63.987,53.204268292682926,63.987C44.75914634146341,63.987,36.3140243902439,49.51375,27.86890243902439,44.1815C19.423780487804876,38.84925,10.978658536585364,35.421375000000005,2.5335365853658516,31.993500000000004Z"/></g></g><g id="lines"><g class="series"><clipPath id="clip-0-0"><rect width="0" y="-10" height="88.5575"/></clipPath><path class="line" opacity="1" fill="none" stroke="rgba(0,0,0,0.5)" stroke-width="2" transform="translate(10, 34)" clip-path="url(#clip-0-0)" d="M2.5335365853658516,7.617500000000007C10.978658536585364,24.629916666666677,19.423780487804876,41.64233333333334,27.86890243902439,51.79900000000001C36.3140243902439,61.95566666666667,44.75914634146341,68.5575,53.204268292682926,68.5575C61.64939024390244,68.5575,70.09451219512195,65.51050000000001,78.53963414634146,62.4635"/><text class="label" font-size="11" alignment-baseline="middle" opacity="0" x="5" fill="rgba(0,0,0,0.5)" transform="translate(88.53963470458984, 96.4635009765625)"/></g><g class="series"><clipPath id="clip-0-1"><rect width="0" y="-10" height="88.5575"/></clipPath><path class="line" opacity="1" fill="none" stroke="rgba(0,0,0,0.5)" stroke-width="2" transform="translate(128.875, 34)" clip-path="url(#clip-0-1)" d="M2.5335365853658516,4.570500000000003C10.978658536585364,25.137750000000008,19.423780487804876,45.705000000000005,27.86890243902439,54.846000000000004C36.3140243902439,63.987,44.75914634146341,68.5575,53.204268292682926,68.5575C61.64939024390244,68.5575,70.09451219512195,65.51050000000001,78.53963414634146,62.4635"/><text class="label" font-size="11" alignment-baseline="middle" opacity="0" x="5" fill="rgba(0,0,0,0.5)" transform="translate(207.4146270751953, 96.4635009765625)"/></g><g class="series"><clipPath id="clip-0-2"><rect width="0" y="-10" height="88.5575"/></clipPath><path class="line" opacity="1" fill="none" stroke="rgba(0,0,0,0.5)" stroke-width="2" transform="translate(247.75, 34)" clip-path="url(#clip-0-2)" d="M2.5335365853658516,4.570500000000003C10.978658536585364,25.137750000000008,19.423780487804876,45.705000000000005,27.86890243902439,54.846000000000004C36.3140243902439,63.987,44.75914634146341,68.5575,53.204268292682926,68.5575C61.64939024390244,68.5575,70.09451219512195,65.51050000000001,78.53963414634146,62.4635"/><text class="label" font-size="11" alignment-baseline="middle" opacity="0" x="5" fill="rgba(0,0,0,0.5)" transform="translate(326.2896423339844, 96.4635009765625)"/></g><g class="series"><clipPath id="clip-0-3"><rect width="0" y="-10" height="88.5575"/></clipPath><path class="line" opacity="1" fill="none" stroke="rgba(0,0,0,0.5)" stroke-width="2" transform="translate(366.625, 34)" clip-path="url(#clip-0-3)" d="M2.5335365853658516,12.188000000000002C10.978658536585364,25.01079166666667,19.423780487804876,37.83358333333334,27.86890243902439,47.228500000000004C36.3140243902439,56.62341666666667,44.75914634146341,68.5575,53.204268292682926,68.5575C61.64939024390244,68.5575,70.09451219512195,65.51050000000001,78.53963414634146,62.4635"/><text class="label" font-size="11" alignment-baseline="middle" opacity="0" x="5" fill="rgba(0,0,0,0.5)" transform="translate(445.1646423339844, 96.4635009765625)"/></g><g class="series"><clipPath id="clip-4-4"><rect width="0" y="-10" height="88.5575"/></clipPath><path class="line" opacity="1" fill="none" stroke="rgba(0,0,0,0.5)" stroke-width="2" transform="translate(485.5, 34)" clip-path="url(#clip-4-4)" d="M2.5335365853658516,10.664500000000004C10.978658536585364,24.88383333333334,19.423780487804876,39.103166666666674,27.86890243902439,48.75200000000001C36.3140243902439,58.400833333333345,44.75914634146341,68.5575,53.204268292682926,68.5575C61.64939024390244,68.5575,70.09451219512195,65.51050000000001,78.53963414634146,62.4635"/><text class="label" font-size="11" alignment-baseline="middle" opacity="0" x="5" fill="rgba(0,0,0,0.5)" transform="translate(564.0396118164062, 96.4635009765625)"/></g><g class="series"><clipPath id="clip-5-5"><rect width="0" y="-10" height="88.5575"/></clipPath><path class="line" opacity="1" fill="none" stroke="rgba(0,0,0,0.5)" stroke-width="2" transform="translate(604.375, 34)" clip-path="url(#clip-5-5)" d="M2.5335365853658516,28.946500000000007C10.978658536585364,29.200416666666673,19.423780487804876,29.454333333333338,27.86890243902439,30.47C36.3140243902439,31.48566666666666,44.75914634146341,68.5575,53.204268292682926,68.5575C61.64939024390244,68.5575,70.09451219512195,65.51050000000001,78.53963414634146,62.4635"/><text class="label" font-size="11" alignment-baseline="middle" opacity="0" x="5" fill="rgba(0,0,0,0.5)" transform="translate(682.9146118164062, 96.4635009765625)"/></g><g class="series"><clipPath id="clip-6-6"><rect width="0" y="-10" height="88.5575"/></clipPath><path class="line" opacity="1" fill="none" stroke="rgba(0,0,0,0.5)" stroke-width="2" transform="translate(723.25, 34)" clip-path="url(#clip-6-6)" d="M2.5335365853658516,4.570500000000003C10.978658536585364,32.247416666666666,19.423780487804876,59.92433333333334,27.86890243902439,60.940000000000005C36.3140243902439,61.95566666666667,44.75914634146341,62.4635,53.204268292682926,62.4635C61.64939024390244,62.4635,70.09451219512195,62.4635,78.53963414634146,62.4635"/><text class="label" font-size="11" alignment-baseline="middle" opacity="0" x="5" fill="rgba(0,0,0,0.5)" transform="translate(801.7896118164062, 96.4635009765625)"/></g><g class="series"><clipPath id="clip-7-7"><rect width="0" y="-10" height="88.5575"/></clipPath><path class="line" opacity="1" fill="none" stroke="rgba(0,0,0,0.5)" stroke-width="2" transform="translate(842.125, 34)" clip-path="url(#clip-7-7)" d="M2.5335365853658516,31.993500000000004C10.978658536585364,35.421375000000005,19.423780487804876,38.84925,27.86890243902439,44.1815C36.3140243902439,49.51375,44.75914634146341,63.987,53.204268292682926,63.987C61.64939024390244,63.987,70.09451219512195,57.13125000000001,78.53963414634146,50.27550000000001"/><text class="label" font-size="11" alignment-baseline="middle" opacity="0" x="5" fill="rgba(0,0,0,0.5)" transform="translate(920.6646118164062, 84.27549743652344)"/></g></g><g id="data-points"><g class="series" transform="translate(10, 34)"><path class="data-point" data-type="arc" fill="rgb(237, 216, 196)" opacity="1" d="M2.0989680733136168e-15,-34.27875A34.27875,34.27875,0,1,1,-33.92984175087602,4.878374762460375L0,0Z" transform="translate(51.9375, 34.278751373291016)" id="point-0-0"/><path class="data-point" data-type="arc" fill="rgb(196, 169, 153)" opacity="1" d="M-33.92984175087602,4.878374762460375A34.27875,34.27875,0,0,1,-15.124507824241077,-30.7616963875039L0,0Z" transform="translate(51.9375, 34.278751373291016)" id="point-0-1"/><path class="data-point" data-type="arc" fill="rgb(249, 193, 192)" opacity="1" d="M-15.124507824241077,-30.7616963875039L0,0Z" transform="translate(51.9375, 34.278751373291016)" id="point-0-2"/><path class="data-point" data-type="arc" fill="rgb(183, 106, 76)" opacity="1" d="M-15.124507824241077,-30.7616963875039A34.27875,34.27875,0,0,1,-6.29690421994085e-15,-34.27875L0,0Z" transform="translate(51.9375, 34.278751373291016)" id="point-0-3"/></g><g class="series" transform="translate(128.875, 34)"><path class="data-point" data-type="arc" fill="rgb(237, 216, 196)" opacity="1" d="M2.0989680733136168e-15,-34.27875A34.27875,34.27875,0,1,1,-34.15300631930948,-2.93340432189401L0,0Z" transform="translate(51.9375, 34.278751373291016)" id="point-1-0"/><path class="data-point" data-type="arc" fill="rgb(196, 169, 153)" opacity="1" d="M-34.15300631930948,-2.93340432189401A34.27875,34.27875,0,0,1,-15.124507824241103,-30.76169638750389L0,0Z" transform="translate(51.9375, 34.278751373291016)" id="point-1-1"/><path class="data-point" data-type="arc" fill="rgb(249, 193, 192)" opacity="1" d="M-15.124507824241103,-30.76169638750389L0,0Z" transform="translate(51.9375, 34.278751373291016)" id="point-1-2"/><path class="data-point" data-type="arc" fill="rgb(183, 106, 76)" opacity="1" d="M-15.124507824241103,-30.76169638750389A34.27875,34.27875,0,0,1,-3.674255022423652e-14,-34.27875L0,0Z" transform="translate(51.9375, 34.278751373291016)" id="point-1-3"/></g><g class="series" transform="translate(247.75, 34)"><path class="data-point" data-type="arc" fill="rgb(237, 216, 196)" opacity="1" d="M2.0989680733136168e-15,-34.27875A34.27875,34.27875,0,1,1,-34.15300631930948,-2.93340432189401L0,0Z" transform="translate(51.9375, 34.278751373291016)" id="point-2-0"/><path class="data-point" data-type="arc" fill="rgb(196, 169, 153)" opacity="1" d="M-34.15300631930948,-2.93340432189401A34.27875,34.27875,0,0,1,-15.124507824241103,-30.76169638750389L0,0Z" transform="translate(51.9375, 34.278751373291016)" id="point-2-1"/><path class="data-point" data-type="arc" fill="rgb(249, 193, 192)" opacity="1" d="M-15.124507824241103,-30.76169638750389L0,0Z" transform="translate(51.9375, 34.278751373291016)" id="point-2-2"/><path class="data-point" data-type="arc" fill="rgb(183, 106, 76)" opacity="1" d="M-15.124507824241103,-30.76169638750389A34.27875,34.27875,0,0,1,-3.674255022423652e-14,-34.27875L0,0Z" transform="translate(51.9375, 34.278751373291016)" id="point-2-3"/></g><g class="series" transform="translate(366.625, 34)"><path class="data-point" data-type="arc" fill="rgb(237, 216, 196)" opacity="1" d="M2.0989680733136168e-15,-34.27875A34.27875,34.27875,0,1,1,-30.317255333441327,15.996772506022069L0,0Z" transform="translate(51.9375, 34.278751373291016)" id="point-3-0"/><path class="data-point" data-type="arc" fill="rgb(196, 169, 153)" opacity="1" d="M-30.317255333441327,15.996772506022069A34.27875,34.27875,0,0,1,-15.124507824241077,-30.7616963875039L0,0Z" transform="translate(51.9375, 34.278751373291016)" id="point-3-1"/><path class="data-point" data-type="arc" fill="rgb(249, 193, 192)" opacity="1" d="M-15.124507824241077,-30.7616963875039L0,0Z" transform="translate(51.9375, 34.278751373291016)" id="point-3-2"/><path class="data-point" data-type="arc" fill="rgb(183, 106, 76)" opacity="1" d="M-15.124507824241077,-30.7616963875039A34.27875,34.27875,0,0,1,-6.29690421994085e-15,-34.27875L0,0Z" transform="translate(51.9375, 34.278751373291016)" id="point-3-3"/></g><g class="series" transform="translate(485.5, 34)"><path class="data-point" data-type="arc" fill="rgb(237, 216, 196)" opacity="1" d="M2.0989680733136168e-15,-34.27875A34.27875,34.27875,0,1,1,-31.94313409133207,12.4365946297883L0,0Z" transform="translate(51.9375, 34.278751373291016)" id="point-4-0"/><path class="data-point" data-type="arc" fill="rgb(196, 169, 153)" opacity="1" d="M-31.94313409133207,12.4365946297883A34.27875,34.27875,0,0,1,-15.124507824241103,-30.76169638750389L0,0Z" transform="translate(51.9375, 34.278751373291016)" id="point-4-1"/><path class="data-point" data-type="arc" fill="rgb(249, 193, 192)" opacity="1" d="M-15.124507824241103,-30.76169638750389L0,0Z" transform="translate(51.9375, 34.278751373291016)" id="point-4-2"/><path class="data-point" data-type="arc" fill="rgb(183, 106, 76)" opacity="1" d="M-15.124507824241103,-30.76169638750389A34.27875,34.27875,0,0,1,-3.674255022423652e-14,-34.27875L0,0Z" transform="translate(51.9375, 34.278751373291016)" id="point-4-3"/></g><g class="series" transform="translate(604.375, 34)"><path class="data-point" data-type="arc" fill="rgb(237, 216, 196)" opacity="1" d="M2.0989680733136168e-15,-34.27875A34.27875,34.27875,0,0,1,5.845287610705557,33.77669780056411L0,0Z" transform="translate(51.9375, 34.278751373291016)" id="point-5-0"/><path class="data-point" data-type="arc" fill="rgb(196, 169, 153)" opacity="1" d="M5.845287610705557,33.77669780056411A34.27875,34.27875,0,0,1,-15.124507824241103,-30.76169638750389L0,0Z" transform="translate(51.9375, 34.278751373291016)" id="point-5-1"/><path class="data-point" data-type="arc" fill="rgb(249, 193, 192)" opacity="1" d="M-15.124507824241103,-30.76169638750389L0,0Z" transform="translate(51.9375, 34.278751373291016)" id="point-5-2"/><path class="data-point" data-type="arc" fill="rgb(183, 106, 76)" opacity="1" d="M-15.124507824241103,-30.76169638750389A34.27875,34.27875,0,0,1,-3.674255022423652e-14,-34.27875L0,0Z" transform="translate(51.9375, 34.278751373291016)" id="point-5-3"/></g><g class="series" transform="translate(723.25, 34)"><path class="data-point" data-type="arc" fill="rgb(237, 216, 196)" opacity="1" d="M2.0989680733136168e-15,-34.27875A34.27875,34.27875,0,1,1,-34.15300631930948,-2.93340432189401L0,0Z" transform="translate(51.9375, 34.278751373291016)" id="point-6-0"/><path class="data-point" data-type="arc" fill="rgb(196, 169, 153)" opacity="1" d="M-34.15300631930948,-2.93340432189401A34.27875,34.27875,0,0,1,-27.14541911240821,-20.93224600405325L0,0Z" transform="translate(51.9375, 34.278751373291016)" id="point-6-1"/><path class="data-point" data-type="arc" fill="rgb(249, 193, 192)" opacity="1" d="M-27.14541911240821,-20.93224600405325A34.27875,34.27875,0,0,1,-15.124507824241103,-30.76169638750389L0,0Z" transform="translate(51.9375, 34.278751373291016)" id="point-6-2"/><path class="data-point" data-type="arc" fill="rgb(183, 106, 76)" opacity="1" d="M-15.124507824241103,-30.76169638750389A34.27875,34.27875,0,0,1,-3.674255022423652e-14,-34.27875L0,0Z" transform="translate(51.9375, 34.278751373291016)" id="point-6-3"/></g><g class="series" transform="translate(842.125, 34)"><path class="data-point" data-type="arc" fill="rgb(237, 216, 196)" opacity="1" d="M2.0989680733136168e-15,-34.27875A34.27875,34.27875,0,0,1,13.343692656927287,31.57496742421067L0,0Z" transform="translate(51.9375, 34.278751373291016)" id="point-7-0"/><path class="data-point" data-type="arc" fill="rgb(196, 169, 153)" opacity="1" d="M13.343692656927287,31.57496742421067A34.27875,34.27875,0,0,1,-33.92984175087602,4.878374762460375L0,0Z" transform="translate(51.9375, 34.278751373291016)" id="point-7-1"/><path class="data-point" data-type="arc" fill="rgb(249, 193, 192)" opacity="1" d="M-33.92984175087602,4.878374762460375A34.27875,34.27875,0,0,1,-33.59600509104588,-6.807432958532852L0,0Z" transform="translate(51.9375, 34.278751373291016)" id="point-7-2"/><path class="data-point" data-type="arc" fill="rgb(183, 106, 76)" opacity="1" d="M-33.59600509104588,-6.807432958532852A34.27875,34.27875,0,0,1,-6.29690421994085e-15,-34.27875L0,0Z" transform="translate(51.9375, 34.278751373291016)" id="point-7-3"/></g></g><g id="data-labels"/><g class="annotations above"><g class="axis-highlights" transform="translate(10, 34)" style="opacity: 1;"/><g class="axis-highlights" transform="translate(128.875, 34)" style="opacity: 1;"/><g class="axis-highlights" transform="translate(247.75, 34)" style="opacity: 1;"/><g class="axis-highlights" transform="translate(366.625, 34)" style="opacity: 1;"/><g class="axis-highlights" transform="translate(485.5, 34)" style="opacity: 1;"/><g class="axis-highlights" transform="translate(604.375, 34)" style="opacity: 1;"/><g class="axis-highlights" transform="translate(723.25, 34)" style="opacity: 1;"/><g class="axis-highlights" transform="translate(842.125, 34)" style="opacity: 1;"/></g></svg>